<svg width="24px" height="24px" viewBox="0 0 24 24" fill="none" xmlns="http://www.w3.org/2000/svg">
<path fill-rule="evenodd" clip-rule="evenodd" d="M12 4.25C7.71979 4.25 4.25 7.71979 4.25 12C4.25 16.2802 7.71979 19.75 12 19.75L16.5345 19.75C16.963 19.7503 17.2936 19.7504 17.5846 19.6872C18.6366 19.4583 19.4583 18.6366 19.6872 17.5846C19.7504 17.2936 19.7503 16.9629 19.75 16.5345L19.75 12C19.75 7.71979 16.2802 4.25 12 4.25ZM9 10.75C8.58579 10.75 8.25 11.0858 8.25 11.5C8.25 11.9142 8.58579 12.25 9 12.25H15C15.4142 12.25 15.75 11.9142 15.75 11.5C15.75 11.0858 15.4142 10.75 15 10.75H9ZM12 14.25C11.5858 14.25 11.25 14.5858 11.25 15C11.25 15.4142 11.5858 15.75 12 15.75H15C15.4142 15.75 15.75 15.4142 15.75 15C15.75 14.5858 15.4142 14.25 15 14.25H12Z" fill="black"/>
</svg>
